<svg xmlns="http://www.w3.org/2000/svg" viewBox="0 0 300 300" fill="none" aria-hidden="true">
  <g stroke="#083127" stroke-width="3.2" stroke-linecap="round" stroke-linejoin="round">
    <line x1="150" y1="150" x2="150" y2="14"/>
    <line x1="150" y1="150" x2="150" y2="286"/>
    <line x1="150" y1="150" x2="14" y2="150"/>
    <line x1="150" y1="150" x2="286" y2="150"/>
    <line x1="150" y1="150" x2="244" y2="56"/>
    <line x1="150" y1="150" x2="56" y2="56"/>
    <line x1="150" y1="150" x2="244" y2="244"/>
    <line x1="150" y1="150" x2="56" y2="244"/>
    <path d="M150 20 L280 150 L150 280 L20 150 Z"/>
    <path d="M150 55 L245 150 L150 245 L55 150 Z"/>
    <path d="M150 90 L210 150 L150 210 L90 150 Z"/>
  </g>
  <circle cx="150" cy="20" r="6.5" fill="#083127"/>
  <circle cx="280" cy="150" r="6.5" fill="#083127"/>
  <circle cx="150" cy="280" r="6.5" fill="#083127"/>
  <circle cx="20" cy="150" r="6.5" fill="#083127"/>
  <circle cx="150" cy="150" r="10" fill="#083127"/>
</svg>
